<svg width="38" height="38" viewBox="0 0 38 38" fill="none" xmlns="http://www.w3.org/2000/svg">
<path d="M19 25.3333C20.6797 25.3333 22.2906 24.6661 23.4783 23.4783C24.6661 22.2906 25.3333 20.6797 25.3333 19C25.3333 17.3203 24.6661 15.7094 23.4783 14.5217C22.2906 13.3339 20.6797 12.6667 19 12.6667C17.3203 12.6667 15.7094 13.3339 14.5217 14.5217C13.3339 15.7094 12.6667 17.3203 12.6667 19C12.6667 20.6797 13.3339 22.2906 14.5217 23.4783C15.7094 24.6661 17.3203 25.3333 19 25.3333Z" stroke="#1E1411" stroke-width="2" stroke-linecap="round" stroke-linejoin="round"/>
<path d="M4.75 25.3333V12.6667C4.75 10.567 5.58407 8.5534 7.06874 7.06874C8.5534 5.58407 10.567 4.75 12.6667 4.75H25.3333C27.433 4.75 29.4466 5.58407 30.9313 7.06874C32.4159 8.5534 33.25 10.567 33.25 12.6667V25.3333C33.25 27.433 32.4159 29.4466 30.9313 30.9313C29.4466 32.4159 27.433 33.25 25.3333 33.25H12.6667C10.567 33.25 8.5534 32.4159 7.06874 30.9313C5.58407 29.4466 4.75 27.433 4.75 25.3333Z" stroke="#1E1411" stroke-width="2"/>
<path d="M27.7083 10.3084L27.725 10.2901" stroke="#1E1411" stroke-width="2" stroke-linecap="round" stroke-linejoin="round"/>
</svg>
