<svg width="38" height="38" viewBox="0 0 38 38" fill="none" xmlns="http://www.w3.org/2000/svg">
<path d="M11.0833 26.9167V15.8333M33.25 12.6667V25.3333C33.25 27.433 32.4159 29.4466 30.9313 30.9313C29.4466 32.4159 27.433 33.25 25.3333 33.25H12.6667C10.567 33.25 8.5534 32.4159 7.06874 30.9313C5.58407 29.4466 4.75 27.433 4.75 25.3333V12.6667C4.75 10.567 5.58407 8.5534 7.06874 7.06874C8.5534 5.58407 10.567 4.75 12.6667 4.75H25.3333C27.433 4.75 29.4466 5.58407 30.9313 7.06874C32.4159 8.5534 33.25 10.567 33.25 12.6667Z" stroke="#1E1411" stroke-width="2" stroke-linecap="round" stroke-linejoin="round"/>
<path d="M17.4167 26.9167V21.7708M17.4167 21.7708V15.8333M17.4167 21.7708C17.4167 15.8333 26.9167 15.8333 26.9167 21.7708V26.9167M11.0833 11.0992L11.0992 11.0817" stroke="#1E1411" stroke-width="2" stroke-linecap="round" stroke-linejoin="round"/>
</svg>
