<svg width="38" height="38" viewBox="0 0 38 38" fill="none" xmlns="http://www.w3.org/2000/svg">
<path d="M36.4167 4.76583C36.4167 4.76583 33.2215 6.65317 31.445 7.18833C30.4914 6.09189 29.2241 5.31476 27.8145 4.96205C26.4048 4.60934 24.9209 4.69806 23.5633 5.21622C22.2057 5.73438 21.04 6.65697 20.2239 7.85922C19.4078 9.06147 18.9805 10.4854 19 11.9383V13.5217C16.2175 13.5938 13.4604 12.9767 10.9741 11.7253C8.48785 10.4739 6.34968 8.62701 4.75001 6.34917C4.75001 6.34917 -1.58332 20.5992 12.6667 26.9325C9.40585 29.1459 5.52134 30.2558 1.58334 30.0992C15.8333 38.0158 33.25 30.0992 33.25 11.8908C33.25 11.4507 33.2057 11.0105 33.1233 10.5767C34.7383 8.98383 36.4167 4.76583 36.4167 4.76583Z" stroke="#1E1411" stroke-width="2" stroke-linecap="round" stroke-linejoin="round"/>
</svg>
